<?xml version="1.0" encoding="UTF-8" standalone="no" ?>
<!DOCTYPE svg PUBLIC "-//W3C//DTD SVG 1.1//EN" "http://www.w3.org/Graphics/SVG/1.1/DTD/svg11.dtd">
<svg xmlns="http://www.w3.org/2000/svg" xmlns:xlink="http://www.w3.org/1999/xlink" version="1.1" width="1280" height="1024" viewBox="0 0 1280 1024" xml:space="preserve">
<desc>Created with Fabric.js 5.3.0</desc>
<defs>
</defs>
<g transform="matrix(1 0 0 1 640 512)" id="background-logo"  >
<rect style="stroke: none; stroke-width: 0; stroke-dasharray: none; stroke-linecap: butt; stroke-dashoffset: 0; stroke-linejoin: miter; stroke-miterlimit: 4; fill: rgb(255,190,88); fill-rule: nonzero; opacity: 1;"  paint-order="stroke"  x="-640" y="-512" rx="0" ry="0" width="1280" height="1024" />
</g>
<g transform="matrix(1.9211538461538462 0 0 1.9211538461538462 640 398.25139104510515)" id="logo-logo"  >
<g style=""  paint-order="stroke"   >
		<g transform="matrix(0.13397268935547862 0 0 -0.13397268935547865 0.5549799171212726 -65.08252570885384)"  >
<path style="stroke: none; stroke-width: 1; stroke-dasharray: none; stroke-linecap: butt; stroke-dashoffset: 0; stroke-linejoin: miter; stroke-miterlimit: 10; fill: rgb(0,0,0); fill-rule: nonzero; opacity: 1;"  paint-order="stroke"  transform=" translate(-1628.645, -2033.5099999999998)" d="M 1596.05 1969.84 C 1578.8899999999999 1969.84 1564.98 1983.77 1564.98 2000.9299999999998 L 1564.98 2066.0899999999997 C 1564.98 2083.2599999999998 1578.89 2097.18 1596.05 2097.18 L 1661.24 2097.18 C 1678.39 2097.18 1692.3 2083.2599999999998 1692.31 2066.0899999999997 L 1692.3 2000.9299999999996 C 1692.3 1983.7699999999995 1678.3899999999999 1969.8399999999997 1661.24 1969.8399999999997 L 1596.05 1969.8399999999997" stroke-linecap="round" />
</g>
		<g transform="matrix(0.13397268935547862 0 0 -0.13397268935547865 0.5543115726393353 -28.620141870613224)"  >
<path style="stroke: none; stroke-width: 1; stroke-dasharray: none; stroke-linecap: butt; stroke-dashoffset: 0; stroke-linejoin: miter; stroke-miterlimit: 10; fill: rgb(0,0,0); fill-rule: nonzero; opacity: 1;"  paint-order="stroke"  transform=" translate(-1628.64, -1761.33)" d="M 1610.66 1809.98 C 1610.66 1819.92 1618.72 1827.95 1628.64 1827.95 L 1628.64 1827.95 C 1638.5700000000002 1827.95 1646.6200000000001 1819.92 1646.6200000000001 1809.98 L 1646.6200000000001 1712.69 C 1646.6200000000001 1702.75 1638.5700000000002 1694.71 1628.64 1694.71 L 1628.64 1694.71 C 1618.72 1694.71 1610.66 1702.75 1610.66 1712.69 L 1610.66 1809.98" stroke-linecap="round" />
</g>
		<g transform="matrix(0.13397268935547862 0 0 -0.13397268935547865 -35.82027610409625 10.029551181594314)"  >
<path style="stroke: none; stroke-width: 1; stroke-dasharray: none; stroke-linecap: butt; stroke-dashoffset: 0; stroke-linejoin: miter; stroke-miterlimit: 10; fill: rgb(0,0,0); fill-rule: nonzero; opacity: 1;"  paint-order="stroke"  transform=" translate(-1357.1152424565726, -1472.8225011231225)" d="M 1515.07 1946.13 C 1295.86 1893.16 1142.77 1698.52 1142.77 1472.8200000000002 C 1142.77 1247.13 1295.86 1052.4800000000002 1515.07 999.5120000000002 C 1539.58 993.5900000000001 1564.25 1008.6800000000002 1570.1699999999998 1033.17 C 1576.1 1057.68 1561.0299999999997 1082.3300000000002 1536.5199999999998 1088.27 C 1358.4599999999998 1131.31 1234.0899999999997 1289.42 1234.0899999999997 1472.82 C 1234.0899999999997 1656.1999999999998 1358.4599999999996 1814.32 1536.5199999999998 1857.36 C 1561.0299999999997 1863.28 1576.0999999999997 1887.9599999999998 1570.1699999999998 1912.4699999999998 C 1564.2499999999998 1936.9699999999998 1539.58 1952.0599999999997 1515.07 1946.1299999999999" stroke-linecap="round" />
</g>
		<g transform="matrix(0.13397268935547862 0 0 -0.13397268935547865 28.459516455716084 -39.71611847871063)"  >
<path style="stroke: none; stroke-width: 1; stroke-dasharray: none; stroke-linecap: butt; stroke-dashoffset: 0; stroke-linejoin: miter; stroke-miterlimit: 10; fill: rgb(0,0,0); fill-rule: nonzero; opacity: 1;"  paint-order="stroke"  transform=" translate(-1836.943318778261, -1844.157978965312)" d="M 1689.42 1912.45 C 1683.5 1887.96 1698.5500000000002 1863.28 1723.0800000000002 1857.3600000000001 C 1792.71 1840.5400000000002 1856.68 1804.8100000000002 1908.0000000000002 1754.0800000000002 C 1925.9200000000003 1736.3500000000001 1954.8400000000001 1736.5300000000002 1972.5700000000002 1754.4600000000003 C 1990.2800000000002 1772.4000000000003 1990.14 1801.3000000000002 1972.2000000000003 1819.0200000000002 C 1909.0400000000002 1881.4500000000003 1830.3100000000004 1925.3900000000003 1744.5100000000002 1946.13 C 1719.9900000000002 1952.0600000000002 1695.3300000000002 1936.97 1689.4200000000003 1912.45" stroke-linecap="round" />
</g>
		<g transform="matrix(0.13397268935547862 0 0 -0.13397268935547865 36.52953304205795 45.21679450668145)"  >
<path style="stroke: none; stroke-width: 1; stroke-dasharray: none; stroke-linecap: butt; stroke-dashoffset: 0; stroke-linejoin: miter; stroke-miterlimit: 10; fill: rgb(0,0,0); fill-rule: nonzero; opacity: 1;"  paint-order="stroke"  transform=" translate(-1897.18340481543, -1210.160879233218)" d="M 2016 1386.36 C 1983.47 1240.4099999999999 1868.51 1123.3999999999999 1723.08 1088.27 C 1698.55 1082.33 1683.5 1057.68 1689.4199999999998 1033.17 C 1695.33 1008.6600000000001 1719.9899999999998 993.5780000000001 1744.5099999999998 999.5120000000001 C 1923.5299999999997 1042.75 2065.0699999999997 1186.8000000000002 2105.1299999999997 1366.49 C 2110.6199999999994 1391.09 2095.1099999999997 1415.51 2070.4999999999995 1421 C 2045.8699999999994 1426.48 2021.4799999999996 1410.97 2015.9999999999995 1386.36" stroke-linecap="round" />
</g>
		<g transform="matrix(0.13397268935547862 0 0 -0.13397268935547865 0.5376029605880603 10.029186630058689)"  >
<path style="stroke: none; stroke-width: 1; stroke-dasharray: none; stroke-linecap: butt; stroke-dashoffset: 0; stroke-linejoin: miter; stroke-miterlimit: 10; fill: rgb(0,0,0); fill-rule: nonzero; opacity: 1;"  paint-order="stroke"  transform=" translate(-1628.5149999999999, -1472.8249999999998)" d="M 1579.11 1472.82 C 1579.11 1500.06 1601.27 1522.22 1628.51 1522.22 C 1655.75 1522.22 1677.9 1500.06 1677.9 1472.82 C 1677.9 1445.59 1655.75 1423.4099999999999 1628.51 1423.4099999999999 C 1601.27 1423.4099999999999 1579.11 1445.59 1579.11 1472.82 z M 1548.6699999999998 1472.82 C 1548.6699999999998 1428.79 1584.4899999999998 1392.98 1628.5099999999998 1392.98 C 1672.5399999999997 1392.98 1708.3599999999997 1428.79 1708.3599999999997 1472.82 C 1708.3599999999997 1516.85 1672.5399999999997 1552.6699999999998 1628.5099999999998 1552.6699999999998 C 1584.4899999999998 1552.6699999999998 1548.6699999999998 1516.85 1548.6699999999998 1472.82" stroke-linecap="round" />
</g>
		<g transform="matrix(0.13397268935547862 0 0 -0.13397268935547865 51.347337794898806 -47.43574028069298)"  >
<path style="stroke: none; stroke-width: 1; stroke-dasharray: none; stroke-linecap: butt; stroke-dashoffset: 0; stroke-linejoin: miter; stroke-miterlimit: 10; fill: rgb(0,0,0); fill-rule: nonzero; opacity: 1;"  paint-order="stroke"  transform=" translate(-2007.7934703326446, -1901.7824631053645)" d="M 1941 1876.26 C 1928.22 1887.73 1927.2 1907.39 1938.65 1920.15 L 1982.27 1968.5900000000001 C 1993.74 1981.3600000000001 2013.4 1982.39 2026.16 1970.89 L 2074.6 1927.3000000000002 C 2087.36 1915.8200000000002 2088.4 1896.1900000000003 2076.91 1883.41 L 2033.31 1834.97 C 2021.83 1822.2 2002.2 1821.19 1989.44 1832.65 L 1941 1876.26" stroke-linecap="round" />
</g>
		<g transform="matrix(0.13397268935547862 0 0 -0.13397268935547865 29.03982174189923 10.02985497454074)"  >
<path style="stroke: none; stroke-width: 1; stroke-dasharray: none; stroke-linecap: butt; stroke-dashoffset: 0; stroke-linejoin: miter; stroke-miterlimit: 10; fill: rgb(0,0,0); fill-rule: nonzero; opacity: 1;"  paint-order="stroke"  transform=" translate(-1841.275, -1472.82)" d="M 1956.68 1502.85 L 1683.5300000000002 1502.85 C 1683.5800000000002 1501.05 1683.8000000000002 1499.29 1683.8000000000002 1497.48 L 1683.8000000000002 1442.79 L 1956.6800000000003 1442.79 C 1980.0900000000004 1442.79 1999.0200000000002 1456.23 1999.0200000000002 1472.82 C 1999.0200000000002 1489.4099999999999 1980.0900000000001 1502.85 1956.6800000000003 1502.85" stroke-linecap="round" />
</g>
</g>
</g>
<g transform="matrix(1.9211538461538462 0 0 1.9211538461538462 640.0541767219124 637.1467150377633)" id="text-logo"  >
<g style=""  paint-order="stroke"   >
		<g transform="matrix(1 0 0 1 0 0)" id="text-logo-path-0"  >
<path style="stroke: rgb(255,255,255); stroke-width: 0; stroke-dasharray: none; stroke-linecap: butt; stroke-dashoffset: 0; stroke-linejoin: miter; stroke-miterlimit: 4; fill: rgb(0,0,0); fill-rule: nonzero; opacity: 1;"  paint-order="stroke"  transform=" translate(-203.32553769866286, 17.4)" d="M 39.2 -2.7 L 39.2 -31.4 C 39.2 -35.05 34.45 -36.6 32.3 -33.5 L 21.75 -17.75 C 21.15 -16.9 20.25 -16.9 19.65 -17.75 L 9.1 -33.5 C 6.95 -36.6 2.2 -35.05 2.2 -31.4 L 2.2 -2.7 C 2.2 -1 3.55 0.3 5.2 0.3 C 6.85 0.3 8.2 -1 8.2 -2.7 L 8.2 -22.15 C 8.2 -23.15 8.65 -23.3 9.25 -22.45 L 17.7 -9.9 C 19.05 -7.75 22.35 -7.75 23.7 -9.9 L 32.15 -22.45 C 32.75 -23.3 33.2 -23.15 33.2 -22.15 L 33.2 -2.7 C 33.2 -1 34.55 0.3 36.2 0.3 C 37.85 0.3 39.2 -1 39.2 -2.7 Z M 22.8 -13.1 L 22.7 -13.25 C 22.75 -13.2 22.8 -13.1 22.8 -13.1 Z M 74.8 -34.1 L 66.9 -23.7 C 66.3 -22.9 65.3 -22.9 64.7 -23.7 L 56.8 -34.1 C 56.3 -34.75 55.4 -35.25 54.45 -35.25 C 52.75 -35.25 51.45 -33.9 51.45 -32.25 C 51.45 -31.55 51.65 -30.9 52.05 -30.4 L 61.7 -17.65 C 62.3 -16.85 62.8 -15.3 62.8 -14.3 L 62.8 -2.7 C 62.8 -1 64.15 0.3 65.8 0.3 C 67.45 0.3 68.8 -1 68.8 -2.7 L 68.8 -14.3 C 68.8 -15.3 69.3 -16.85 69.9 -17.65 L 79.55 -30.4 C 79.95 -30.9 80.15 -31.55 80.15 -32.25 C 80.15 -33.9 78.85 -35.25 77.15 -35.25 C 76.2 -35.25 75.3 -34.75 74.8 -34.1 Z M 116.65 -7.7 C 114.75 -6.45 112.55 -5.75 110.2 -5.75 C 103.7 -5.75 98.4 -11.05 98.4 -17.55 C 98.4 -23.95 103.7 -29.25 110.2 -29.25 C 112.55 -29.25 114.75 -28.55 116.65 -27.3 C 117.1 -27 117.7 -26.8 118.3 -26.8 C 119.95 -26.8 121.3 -28.15 121.3 -29.8 C 121.3 -30.85 120.8 -31.75 119.95 -32.3 C 117.15 -34.15 113.75 -35.25 110.2 -35.25 C 100.4 -35.25 92.4 -27.25 92.4 -17.55 C 92.4 -7.75 100.4 0.25 110.2 0.25 C 113.8 0.25 117.15 -0.85 119.95 -2.7 C 120.8 -3.25 121.3 -4.15 121.3 -5.2 C 121.3 -6.85 119.95 -8.2 118.3 -8.2 C 117.7 -8.2 117.1 -8 116.65 -7.7 Z M 151.35 -5.75 C 144.85 -5.75 139.55 -11.05 139.55 -17.55 C 139.55 -23.95 144.85 -29.25 151.35 -29.25 C 157.8 -29.25 163.1 -23.95 163.1 -17.55 C 163.1 -11.05 157.8 -5.75 151.35 -5.75 Z M 151.35 0.25 C 161.1 0.25 169.1 -7.75 169.1 -17.55 C 169.1 -27.25 161.1 -35.25 151.35 -35.25 C 141.55 -35.25 133.55 -27.25 133.55 -17.55 C 133.55 -7.75 141.55 0.25 151.35 0.25 Z M 213.5 -3.7 L 201.3 -32.65 C 199.9 -36.1 195.2 -36.1 193.8 -32.65 L 181.6 -3.7 C 181.45 -3.35 181.35 -2.95 181.35 -2.5 C 181.35 -0.85 182.7 0.5 184.35 0.5 C 185.55 0.5 186.65 -0.25 187.1 -1.25 L 188.6 -4.8 C 188.95 -5.7 190.15 -6.5 191.15 -6.5 L 203.95 -6.5 C 204.95 -6.5 206.15 -5.7 206.5 -4.8 L 208 -1.25 C 208.45 -0.25 209.55 0.5 210.75 0.5 C 212.4 0.5 213.75 -0.85 213.75 -2.5 C 213.75 -2.95 213.65 -3.35 213.5 -3.7 Z M 192.55 -14.2 L 196.85 -24.35 C 197.2 -25.25 197.9 -25.25 198.25 -24.35 L 202.55 -14.2 C 202.9 -13.3 202.4 -12.5 201.4 -12.5 L 193.7 -12.5 C 192.7 -12.5 192.2 -13.3 192.55 -14.2 Z M 250.25 -7.7 C 248.35 -6.45 246.15 -5.75 243.8 -5.75 C 237.3 -5.75 232 -11.05 232 -17.55 C 232 -23.95 237.3 -29.25 243.8 -29.25 C 246.15 -29.25 248.35 -28.55 250.25 -27.3 C 250.7 -27 251.3 -26.8 251.9 -26.8 C 253.55 -26.8 254.9 -28.15 254.9 -29.8 C 254.9 -30.85 254.4 -31.75 253.55 -32.3 C 250.75 -34.15 247.35 -35.25 243.8 -35.25 C 234 -35.25 226 -27.25 226 -17.55 C 226 -7.75 234 0.25 243.8 0.25 C 247.4 0.25 250.75 -0.85 253.55 -2.7 C 254.4 -3.25 254.9 -4.15 254.9 -5.2 C 254.9 -6.85 253.55 -8.2 251.9 -8.2 C 251.3 -8.2 250.7 -8 250.25 -7.7 Z M 273.15 -2.7 L 273.15 -12.65 C 273.15 -13.65 274 -14.5 275 -14.5 L 288.8 -14.5 C 289.8 -14.5 290.65 -13.65 290.65 -12.65 L 290.65 -2.7 C 290.65 -1 292 0.3 293.65 0.3 C 295.3 0.3 296.65 -1 296.65 -2.7 L 296.65 -32.3 C 296.65 -33.95 295.3 -35.3 293.65 -35.3 C 292 -35.3 290.65 -33.95 290.65 -32.3 L 290.65 -22.35 C 290.65 -21.35 289.8 -20.5 288.8 -20.5 L 275 -20.5 C 274 -20.5 273.15 -21.35 273.15 -22.35 L 273.15 -32.3 C 273.15 -33.95 271.8 -35.3 270.15 -35.3 C 268.5 -35.3 267.15 -33.95 267.15 -32.3 L 267.15 -2.7 C 267.15 -1 268.5 0.3 270.15 0.3 C 271.8 0.3 273.15 -1 273.15 -2.7 Z M 314.9 -2.7 L 314.9 -32.3 C 314.9 -33.95 313.55 -35.3 311.9 -35.3 C 310.25 -35.3 308.9 -33.95 308.9 -32.3 L 308.9 -2.7 C 308.9 -1.05 310.25 0.3 311.9 0.3 C 313.55 0.3 314.9 -1.05 314.9 -2.7 Z M 333.15 -2.7 L 333.15 -22.75 C 333.15 -23.75 333.65 -23.9 334.2 -23.1 L 349.7 -1.4 C 351.85 1.6 356.65 0.1 356.65 -3.65 L 356.65 -32.3 C 356.65 -33.95 355.3 -35.3 353.65 -35.3 C 352 -35.3 350.65 -33.95 350.65 -32.3 L 350.65 -12.3 C 350.65 -11.3 350.15 -11.15 349.6 -11.95 L 334.1 -33.65 C 331.95 -36.65 327.15 -35.15 327.15 -31.4 L 327.15 -2.7 C 327.15 -1 328.5 0.3 330.15 0.3 C 331.8 0.3 333.15 -1 333.15 -2.7 Z M 389.4 -14.55 L 396.25 -14.55 C 397.25 -14.55 397.85 -13.75 397.55 -12.8 C 395.8 -8.5 391.85 -5.75 386.7 -5.75 C 379.8 -5.75 374.9 -10.65 374.9 -17.55 C 374.9 -24.35 379.8 -29.25 386.7 -29.25 C 389.2 -29.25 391.3 -28.6 393.15 -27.35 C 393.6 -27.05 394.2 -26.85 394.8 -26.85 C 396.45 -26.85 397.8 -28.15 397.8 -29.8 C 397.8 -30.85 397.3 -31.75 396.45 -32.3 C 393.7 -34.1 390.3 -35.25 386.7 -35.25 C 376.9 -35.25 368.9 -27.25 368.9 -17.55 C 368.9 -7.75 376.9 0.25 386.7 0.25 C 396.2 0.25 404 -7.35 404.45 -16.7 C 404.5 -18.75 402.8 -20.55 400.7 -20.55 L 389.4 -20.55 C 387.75 -20.55 386.4 -19.2 386.4 -17.55 C 386.4 -15.9 387.75 -14.55 389.4 -14.55 Z" stroke-linecap="round" />
</g>
</g>
</g>
<g transform="matrix(1.9211538461538462 0 0 1.9211538461538462 639.8305801245516 723.1433721655234)" id="tagline-ecf8de9b-035b-447c-b6fa-b9dcdf414850-logo"  >
<g style=""  paint-order="stroke"   >
		<g transform="matrix(1 0 0 1 0 0)" id="tagline-ecf8de9b-035b-447c-b6fa-b9dcdf414850-logo-path-0"  >
<path style="stroke: none; stroke-width: 0; stroke-dasharray: none; stroke-linecap: butt; stroke-dashoffset: 0; stroke-linejoin: miter; stroke-miterlimit: 4; fill: rgb(0,0,0); fill-rule: nonzero; opacity: 1;"  paint-order="stroke"  transform=" translate(-283.525, 11.985)" d="M 16.13 -4.69 C 14.97 -3.93 13.63 -3.51 12.19 -3.51 C 8.23 -3.51 5 -6.74 5 -10.7 C 5 -14.6 8.23 -17.83 12.19 -17.83 C 13.63 -17.83 14.97 -17.41 16.13 -16.64 C 16.4 -16.46 16.77 -16.34 17.13 -16.34 C 18.14 -16.34 18.96 -17.16 18.96 -18.17 C 18.96 -18.81 18.66 -19.36 18.14 -19.69 C 16.43 -20.82 14.36 -21.49 12.19 -21.49 C 6.22 -21.49 1.34 -16.61 1.34 -10.7 C 1.34 -4.73 6.22 0.15 12.19 0.15 C 14.39 0.15 16.43 -0.52 18.14 -1.65 C 18.66 -1.98 18.96 -2.53 18.96 -3.17 C 18.96 -4.18 18.14 -5 17.13 -5 C 16.77 -5 16.4 -4.88 16.13 -4.69 Z M 31.95 -1.65 L 31.95 -4.54 C 31.95 -5.15 32.47 -5.67 33.08 -5.67 L 34.75 -5.67 C 35.36 -5.67 36.19 -5.27 36.58 -4.79 L 39.81 -0.55 C 40.15 -0.12 40.67 0.15 41.25 0.15 C 42.25 0.15 43.08 -0.67 43.08 -1.68 C 43.08 -2.1 42.95 -2.5 42.71 -2.8 L 40.51 -5.67 C 40.15 -6.13 40.27 -6.83 40.79 -7.16 C 42.77 -8.57 44.08 -10.91 44.08 -13.5 C 44.08 -17.74 40.51 -21.31 36.28 -21.31 L 30.58 -21.31 C 29.33 -21.31 28.29 -20.3 28.29 -19.05 L 28.29 -1.65 C 28.29 -0.61 29.11 0.18 30.12 0.18 C 31.13 0.18 31.95 -0.61 31.95 -1.65 Z M 31.95 -10.46 L 31.95 -16.52 C 31.95 -17.13 32.47 -17.65 33.08 -17.65 L 36.28 -17.65 C 38.75 -17.65 40.42 -15.97 40.42 -13.5 C 40.42 -11.01 38.75 -9.33 36.28 -9.33 L 33.08 -9.33 C 32.47 -9.33 31.95 -9.85 31.95 -10.46 Z M 66.09 -3.66 L 58.2 -3.66 C 57.59 -3.66 57.07 -4.18 57.07 -4.79 L 57.07 -7.71 C 57.07 -8.32 57.59 -8.84 58.2 -8.84 L 63.96 -8.84 C 64.96 -8.84 65.79 -9.66 65.79 -10.67 C 65.79 -11.68 64.96 -12.5 63.96 -12.5 L 58.2 -12.5 C 57.59 -12.5 57.07 -13.02 57.07 -13.63 L 57.07 -16.55 C 57.07 -17.16 57.59 -17.68 58.2 -17.68 L 66.09 -17.68 C 67.1 -17.68 67.92 -18.5 67.92 -19.51 C 67.92 -20.52 67.1 -21.34 66.09 -21.34 L 55.7 -21.34 C 54.45 -21.34 53.41 -20.3 53.41 -19.05 L 53.41 -2.29 C 53.41 -1.04 54.45 0 55.7 0 L 66.09 0 C 67.1 0 67.92 -0.79 67.92 -1.83 C 67.92 -2.84 67.1 -3.66 66.09 -3.66 Z M 60.42 -27.38 L 58.65 -25.3 C 58.38 -25 58.23 -24.57 58.23 -24.11 C 58.23 -23.11 59.05 -22.28 60.06 -22.28 C 60.6 -22.28 61.09 -22.53 61.43 -22.92 L 63.2 -25 C 63.47 -25.3 63.62 -25.73 63.62 -26.19 C 63.62 -27.19 62.8 -28.02 61.79 -28.02 C 61.24 -28.02 60.76 -27.77 60.42 -27.38 Z M 89.93 -3.66 L 82.04 -3.66 C 81.43 -3.66 80.91 -4.18 80.91 -4.79 L 80.91 -7.71 C 80.91 -8.32 81.43 -8.84 82.04 -8.84 L 87.8 -8.84 C 88.8 -8.84 89.63 -9.66 89.63 -10.67 C 89.63 -11.68 88.8 -12.5 87.8 -12.5 L 82.04 -12.5 C 81.43 -12.5 80.91 -13.02 80.91 -13.63 L 80.91 -16.55 C 80.91 -17.16 81.43 -17.68 82.04 -17.68 L 89.93 -17.68 C 90.94 -17.68 91.76 -18.5 91.76 -19.51 C 91.76 -20.52 90.94 -21.34 89.93 -21.34 L 79.54 -21.34 C 78.29 -21.34 77.25 -20.3 77.25 -19.05 L 77.25 -2.29 C 77.25 -1.04 78.29 0 79.54 0 L 89.93 0 C 90.94 0 91.76 -0.79 91.76 -1.83 C 91.76 -2.84 90.94 -3.66 89.93 -3.66 Z M 100.6 -1.95 C 100.57 -0.55 100.42 0.46 99.93 1.04 C 99.66 1.37 99.53 1.77 99.53 2.19 C 99.53 3.23 100.36 4.05 101.36 4.05 C 101.97 4.05 102.46 3.81 102.8 3.35 C 103.86 2.01 104.17 0.24 104.26 -1.83 C 104.29 -2.8 103.5 -3.72 102.43 -3.72 C 101.45 -3.72 100.63 -2.96 100.6 -1.95 Z M 136.12 -1.65 L 136.12 -16.55 C 136.12 -17.16 136.63 -17.68 137.24 -17.68 L 140.41 -17.68 C 141.42 -17.68 142.24 -18.5 142.24 -19.51 C 142.24 -20.52 141.42 -21.34 140.41 -21.34 L 128.16 -21.34 C 127.15 -21.34 126.33 -20.52 126.33 -19.51 C 126.33 -18.5 127.15 -17.68 128.16 -17.68 L 131.33 -17.68 C 131.94 -17.68 132.46 -17.16 132.46 -16.55 L 132.46 -1.65 C 132.46 -0.61 133.28 0.18 134.29 0.18 C 135.29 0.18 136.12 -0.61 136.12 -1.65 Z M 155.23 -1.65 L 155.23 -4.54 C 155.23 -5.15 155.75 -5.67 156.36 -5.67 L 158.03 -5.67 C 158.64 -5.67 159.47 -5.27 159.86 -4.79 L 163.1 -0.55 C 163.43 -0.12 163.95 0.15 164.53 0.15 C 165.53 0.15 166.36 -0.67 166.36 -1.68 C 166.36 -2.1 166.24 -2.5 165.99 -2.8 L 163.8 -5.67 C 163.43 -6.13 163.55 -6.83 164.07 -7.16 C 166.05 -8.57 167.36 -10.91 167.36 -13.5 C 167.36 -17.74 163.8 -21.31 159.56 -21.31 L 153.86 -21.31 C 152.61 -21.31 151.57 -20.3 151.57 -19.05 L 151.57 -1.65 C 151.57 -0.61 152.39 0.18 153.4 0.18 C 154.41 0.18 155.23 -0.61 155.23 -1.65 Z M 155.23 -10.46 L 155.23 -16.52 C 155.23 -17.13 155.75 -17.65 156.36 -17.65 L 159.56 -17.65 C 162.03 -17.65 163.7 -15.97 163.7 -13.5 C 163.7 -11.01 162.03 -9.33 159.56 -9.33 L 156.36 -9.33 C 155.75 -9.33 155.23 -9.85 155.23 -10.46 Z M 196.29 -2.26 L 188.86 -19.91 C 188 -22.01 185.14 -22.01 184.28 -19.91 L 176.84 -2.26 C 176.75 -2.04 176.69 -1.8 176.69 -1.52 C 176.69 -0.52 177.51 0.3 178.52 0.3 C 179.25 0.3 179.92 -0.15 180.2 -0.76 L 181.11 -2.93 C 181.33 -3.48 182.06 -3.96 182.67 -3.96 L 190.47 -3.96 C 191.08 -3.96 191.81 -3.48 192.03 -2.93 L 192.94 -0.76 C 193.21 -0.15 193.89 0.3 194.62 0.3 C 195.62 0.3 196.45 -0.52 196.45 -1.52 C 196.45 -1.8 196.38 -2.04 196.29 -2.26 Z M 183.52 -8.66 L 186.14 -14.85 C 186.36 -15.39 186.78 -15.39 187 -14.85 L 189.62 -8.66 C 189.83 -8.11 189.53 -7.62 188.92 -7.62 L 184.22 -7.62 C 183.61 -7.62 183.31 -8.11 183.52 -8.66 Z M 220.56 -4.69 C 219.4 -3.93 218.06 -3.51 216.63 -3.51 C 212.66 -3.51 209.43 -6.74 209.43 -10.7 C 209.43 -14.6 212.66 -17.83 216.63 -17.83 C 218.06 -17.83 219.4 -17.41 220.56 -16.64 C 220.83 -16.46 221.2 -16.34 221.57 -16.34 C 222.57 -16.34 223.39 -17.16 223.39 -18.17 C 223.39 -18.81 223.09 -19.36 222.57 -19.69 C 220.86 -20.82 218.79 -21.49 216.63 -21.49 C 210.65 -21.49 205.77 -16.61 205.77 -10.7 C 205.77 -4.73 210.65 0.15 216.63 0.15 C 218.82 0.15 220.86 -0.52 222.57 -1.65 C 223.09 -1.98 223.39 -2.53 223.39 -3.17 C 223.39 -4.18 222.57 -5 221.57 -5 C 221.2 -5 220.83 -4.88 220.56 -4.69 Z M 236.38 -1.65 L 236.38 -4.51 C 236.38 -5.12 236.75 -6.01 237.17 -6.43 L 238 -7.26 C 238.42 -7.68 239.16 -7.68 239.58 -7.26 L 246.41 -0.4 C 246.72 -0.09 247.2 0.15 247.72 0.15 C 248.73 0.15 249.55 -0.64 249.55 -1.68 C 249.55 -2.19 249.31 -2.68 248.67 -3.32 L 242.14 -9.88 C 241.72 -10.3 241.72 -11.04 242.14 -11.46 L 249 -18.35 C 249.34 -18.69 249.55 -19.14 249.55 -19.66 C 249.55 -20.67 248.73 -21.49 247.72 -21.49 C 247.23 -21.49 246.72 -21.25 246.44 -20.97 L 237.17 -11.65 C 236.75 -11.22 236.38 -11.37 236.38 -11.98 L 236.38 -19.69 C 236.38 -20.7 235.56 -21.52 234.55 -21.52 C 233.55 -21.52 232.72 -20.7 232.72 -19.69 L 232.72 -1.65 C 232.72 -0.61 233.55 0.18 234.55 0.18 C 235.56 0.18 236.38 -0.61 236.38 -1.65 Z M 271.56 -3.66 L 263.67 -3.66 C 263.06 -3.66 262.54 -4.18 262.54 -4.79 L 262.54 -7.71 C 262.54 -8.32 263.06 -8.84 263.67 -8.84 L 269.43 -8.84 C 270.43 -8.84 271.26 -9.66 271.26 -10.67 C 271.26 -11.68 270.43 -12.5 269.43 -12.5 L 263.67 -12.5 C 263.06 -12.5 262.54 -13.02 262.54 -13.63 L 262.54 -16.55 C 262.54 -17.16 263.06 -17.68 263.67 -17.68 L 271.56 -17.68 C 272.57 -17.68 273.39 -18.5 273.39 -19.51 C 273.39 -20.52 272.57 -21.34 271.56 -21.34 L 261.17 -21.34 C 259.92 -21.34 258.88 -20.3 258.88 -19.05 L 258.88 -2.29 C 258.88 -1.04 259.92 0 261.17 0 L 271.56 0 C 272.57 0 273.39 -0.79 273.39 -1.83 C 273.39 -2.84 272.57 -3.66 271.56 -3.66 Z M 282.23 -1.95 C 282.2 -0.55 282.05 0.46 281.56 1.04 C 281.29 1.37 281.16 1.77 281.16 2.19 C 281.16 3.23 281.99 4.05 282.99 4.05 C 283.6 4.05 284.09 3.81 284.43 3.35 C 285.49 2.01 285.8 0.24 285.89 -1.83 C 285.92 -2.8 285.13 -3.72 284.06 -3.72 C 283.08 -3.72 282.26 -2.96 282.23 -1.95 Z M 314.94 -3.66 L 312.75 -3.66 C 312.14 -3.66 311.62 -4.18 311.62 -4.79 L 311.62 -16.55 C 311.62 -17.16 312.14 -17.68 312.75 -17.68 L 314.94 -17.68 C 319.03 -17.68 321.95 -14.75 321.95 -10.7 C 321.95 -6.58 319.03 -3.66 314.94 -3.66 Z M 310.22 0 L 314.94 0 C 320.79 0 325.61 -4.82 325.61 -10.7 C 325.61 -16.52 320.79 -21.34 314.94 -21.34 L 310.22 -21.34 C 309 -21.34 307.96 -20.33 307.96 -19.08 L 307.96 -2.26 C 307.96 -1.01 309 0 310.22 0 Z M 347.62 -3.66 L 339.73 -3.66 C 339.12 -3.66 338.6 -4.18 338.6 -4.79 L 338.6 -7.71 C 338.6 -8.32 339.12 -8.84 339.73 -8.84 L 345.49 -8.84 C 346.49 -8.84 347.32 -9.66 347.32 -10.67 C 347.32 -11.68 346.49 -12.5 345.49 -12.5 L 339.73 -12.5 C 339.12 -12.5 338.6 -13.02 338.6 -13.63 L 338.6 -16.55 C 338.6 -17.16 339.12 -17.68 339.73 -17.68 L 347.62 -17.68 C 348.63 -17.68 349.45 -18.5 349.45 -19.51 C 349.45 -20.52 348.63 -21.34 347.62 -21.34 L 337.23 -21.34 C 335.98 -21.34 334.94 -20.3 334.94 -19.05 L 334.94 -2.29 C 334.94 -1.04 335.98 0 337.23 0 L 347.62 0 C 348.63 0 349.45 -0.79 349.45 -1.83 C 349.45 -2.84 348.63 -3.66 347.62 -3.66 Z M 341.95 -27.38 L 340.18 -25.3 C 339.91 -25 339.76 -24.57 339.76 -24.11 C 339.76 -23.11 340.58 -22.28 341.59 -22.28 C 342.13 -22.28 342.62 -22.53 342.96 -22.92 L 344.73 -25 C 345 -25.3 345.15 -25.73 345.15 -26.19 C 345.15 -27.19 344.33 -28.02 343.32 -28.02 C 342.77 -28.02 342.29 -27.77 341.95 -27.38 Z M 362.44 -1.65 L 362.44 -4.54 C 362.44 -5.15 362.96 -5.67 363.57 -5.67 L 366.77 -5.67 C 371 -5.67 374.6 -9.27 374.6 -13.5 C 374.6 -17.77 371 -21.34 366.77 -21.34 L 361.07 -21.34 C 359.82 -21.34 358.78 -20.3 358.78 -19.08 L 358.78 -1.65 C 358.78 -0.61 359.6 0.18 360.61 0.18 C 361.61 0.18 362.44 -0.61 362.44 -1.65 Z M 362.44 -10.46 L 362.44 -16.55 C 362.44 -17.16 362.96 -17.68 363.57 -17.68 L 366.77 -17.68 C 369.24 -17.68 370.94 -16 370.94 -13.5 C 370.94 -11.04 369.24 -9.33 366.77 -9.33 L 363.57 -9.33 C 362.96 -9.33 362.44 -9.85 362.44 -10.46 Z M 403.53 -2.26 L 396.09 -19.91 C 395.24 -22.01 392.37 -22.01 391.52 -19.91 L 384.08 -2.26 C 383.99 -2.04 383.93 -1.8 383.93 -1.52 C 383.93 -0.52 384.75 0.3 385.76 0.3 C 386.49 0.3 387.16 -0.15 387.44 -0.76 L 388.35 -2.93 C 388.56 -3.48 389.29 -3.96 389.9 -3.96 L 397.71 -3.96 C 398.32 -3.96 399.05 -3.48 399.26 -2.93 L 400.18 -0.76 C 400.45 -0.15 401.12 0.3 401.85 0.3 C 402.86 0.3 403.68 -0.52 403.68 -1.52 C 403.68 -1.8 403.62 -2.04 403.53 -2.26 Z M 390.76 -8.66 L 393.38 -14.85 C 393.59 -15.39 394.02 -15.39 394.23 -14.85 L 396.85 -8.66 C 397.07 -8.11 396.76 -7.62 396.15 -7.62 L 391.46 -7.62 C 390.85 -7.62 390.54 -8.11 390.76 -8.66 Z M 413.53 -2.99 C 415.36 -1.07 417.77 0.15 420.51 0.15 C 424.6 0.15 427.68 -2.74 427.68 -5.73 C 427.68 -9.79 423.99 -11.65 421.03 -12.77 C 418.47 -13.75 417.01 -14.51 417.01 -15.61 C 417.01 -16.55 418.19 -17.83 420.42 -17.83 C 422.01 -17.83 423.07 -17.29 423.86 -16.37 C 424.2 -16 424.69 -15.76 425.24 -15.76 C 426.24 -15.76 427.07 -16.58 427.07 -17.59 C 427.07 -18.05 426.88 -18.5 426.61 -18.81 C 425.27 -20.33 423.26 -21.49 420.42 -21.49 C 416.06 -21.49 413.35 -18.53 413.35 -15.61 C 413.35 -12.26 416.27 -10.67 419.75 -9.36 C 422.22 -8.41 424.02 -7.41 424.02 -5.73 C 424.02 -4.85 422.65 -3.51 420.51 -3.51 C 418.87 -3.51 417.4 -4.21 416.15 -5.52 C 415.82 -5.88 415.36 -6.07 414.84 -6.07 C 413.84 -6.07 413.01 -5.24 413.01 -4.24 C 413.01 -3.75 413.26 -3.26 413.53 -2.99 Z M 437.52 -2.99 C 439.35 -1.07 441.76 0.15 444.5 0.15 C 448.59 0.15 451.67 -2.74 451.67 -5.73 C 451.67 -9.79 447.98 -11.65 445.02 -12.77 C 442.46 -13.75 441 -14.51 441 -15.61 C 441 -16.55 442.19 -17.83 444.41 -17.83 C 446 -17.83 447.06 -17.29 447.86 -16.37 C 448.19 -16 448.68 -15.76 449.23 -15.76 C 450.23 -15.76 451.06 -16.58 451.06 -17.59 C 451.06 -18.05 450.87 -18.5 450.6 -18.81 C 449.26 -20.33 447.25 -21.49 444.41 -21.49 C 440.05 -21.49 437.34 -18.53 437.34 -15.61 C 437.34 -12.26 440.27 -10.67 443.74 -9.36 C 446.21 -8.41 448.01 -7.41 448.01 -5.73 C 448.01 -4.85 446.64 -3.51 444.5 -3.51 C 442.86 -3.51 441.39 -4.21 440.14 -5.52 C 439.81 -5.88 439.35 -6.07 438.83 -6.07 C 437.83 -6.07 437 -5.24 437 -4.24 C 437 -3.75 437.25 -3.26 437.52 -2.99 Z M 473.68 -3.66 L 465.78 -3.66 C 465.17 -3.66 464.65 -4.18 464.65 -4.79 L 464.65 -7.71 C 464.65 -8.32 465.17 -8.84 465.78 -8.84 L 471.54 -8.84 C 472.55 -8.84 473.37 -9.66 473.37 -10.67 C 473.37 -11.68 472.55 -12.5 471.54 -12.5 L 465.78 -12.5 C 465.17 -12.5 464.65 -13.02 464.65 -13.63 L 464.65 -16.55 C 464.65 -17.16 465.17 -17.68 465.78 -17.68 L 473.68 -17.68 C 474.68 -17.68 475.51 -18.5 475.51 -19.51 C 475.51 -20.52 474.68 -21.34 473.68 -21.34 L 463.28 -21.34 C 462.03 -21.34 461 -20.3 461 -19.05 L 461 -2.29 C 461 -1.04 462.03 0 463.28 0 L 473.68 0 C 474.68 0 475.51 -0.79 475.51 -1.83 C 475.51 -2.84 474.68 -3.66 473.68 -3.66 Z M 486.66 -8.84 L 494.65 -8.84 C 495.66 -8.84 496.48 -9.66 496.48 -10.67 C 496.48 -11.68 495.66 -12.5 494.65 -12.5 L 486.66 -12.5 C 485.66 -12.5 484.83 -11.68 484.83 -10.67 C 484.83 -9.66 485.66 -8.84 486.66 -8.84 Z M 515.59 -1.65 L 515.59 -16.55 C 515.59 -17.16 516.11 -17.68 516.72 -17.68 L 519.89 -17.68 C 520.9 -17.68 521.72 -18.5 521.72 -19.51 C 521.72 -20.52 520.9 -21.34 519.89 -21.34 L 507.64 -21.34 C 506.63 -21.34 505.81 -20.52 505.81 -19.51 C 505.81 -18.5 506.63 -17.68 507.64 -17.68 L 510.81 -17.68 C 511.42 -17.68 511.94 -17.16 511.94 -16.55 L 511.94 -1.65 C 511.94 -0.61 512.76 0.18 513.77 0.18 C 514.77 0.18 515.59 -0.61 515.59 -1.65 Z M 541.9 -3.51 C 537.94 -3.51 534.71 -6.74 534.71 -10.7 C 534.71 -14.6 537.94 -17.83 541.9 -17.83 C 545.84 -17.83 549.07 -14.6 549.07 -10.7 C 549.07 -6.74 545.84 -3.51 541.9 -3.51 Z M 541.9 0.15 C 547.85 0.15 552.73 -4.73 552.73 -10.7 C 552.73 -16.61 547.85 -21.49 541.9 -21.49 C 535.93 -21.49 531.05 -16.61 531.05 -10.7 C 531.05 -4.73 535.93 0.15 541.9 0.15 Z M 565.71 -1.65 L 565.71 -19.69 C 565.71 -20.7 564.89 -21.52 563.88 -21.52 C 562.88 -21.52 562.05 -20.7 562.05 -19.69 L 562.05 -1.65 C 562.05 -0.64 562.88 0.18 563.88 0.18 C 564.89 0.18 565.71 -0.64 565.71 -1.65 Z" stroke-linecap="round" />
</g>
</g>
</g>
</svg>